<svg width="44" height="49" viewBox="0 0 44 49" fill="none" xmlns="http://www.w3.org/2000/svg">
<path d="M21.7232 33.481C20.4032 33.4869 19.1006 33.167 17.9224 32.5479C16.7441 31.9287 15.7237 31.0278 14.9449 29.919L9.5166 33.1624C9.72316 33.4102 9.9677 33.6205 10.2404 33.785L19.8999 39.5769C20.4644 39.8769 21.0893 40.0333 21.7232 40.0333C22.3572 40.0333 22.982 39.8769 23.5466 39.5769L33.2061 33.785C33.4787 33.6205 33.7233 33.4102 33.9298 33.1624L28.5155 29.8611C27.7413 30.9825 26.7214 31.8959 25.5401 32.5254C24.3589 33.1549 23.0504 33.4825 21.7232 33.481Z" fill="#414042"/>
<path d="M13.2242 24.7404C13.2291 22.6812 14.0295 20.6959 15.4722 19.164C16.915 17.6322 18.8991 16.6611 21.045 16.4365V10.1948C20.7195 10.2594 20.4062 10.3714 20.1164 10.527L10.0465 16.0629C9.49921 16.4121 9.04411 16.8775 8.7169 17.4226C8.38963 17.9676 8.19914 18.5775 8.16028 19.2045V30.2762C8.16475 30.5957 8.21846 30.9129 8.31984 31.2173L13.9788 28.1034C13.4839 27.0449 13.2269 25.8993 13.2242 24.7404Z" fill="#414042"/>
<path d="M33.4991 16.059L23.9592 10.5268C23.6847 10.3713 23.388 10.2593 23.0795 10.1948V16.4186C24.3755 16.5663 25.6189 17.0181 26.7097 17.7378C27.8004 18.4573 28.7079 19.4246 29.3592 20.5616C30.0105 21.6985 30.3873 22.9735 30.4593 24.2838C30.5313 25.5942 30.2966 26.9031 29.7738 28.1055L35.1349 31.2173C35.231 30.913 35.2819 30.5961 35.2861 30.2769V19.2124C35.2514 18.5834 35.0719 17.9712 34.7617 17.4239C34.4516 16.8767 34.0194 16.4094 33.4991 16.059Z" fill="#414042"/>
<path d="M40.4478 10.5144L24.6992 1.4064C23.7756 0.942482 22.7565 0.700928 21.7231 0.700928C20.6898 0.700928 19.6708 0.942482 18.7471 1.4064L2.99844 10.5144C2.134 11.0784 1.41429 11.838 0.89727 12.7318C0.380319 13.6257 0.0806458 14.6288 0.0224609 15.6599V33.8759C0.0795608 34.9094 0.378692 35.9149 0.895642 36.8112C1.41259 37.7075 2.13292 38.4696 2.99844 39.0358L18.7471 48.144C19.6708 48.6079 20.6898 48.8493 21.7231 48.8493C22.7565 48.8493 23.7756 48.6079 24.6992 48.144L40.4478 39.0358C41.3133 38.4696 42.0337 37.7075 42.5506 36.8112C43.0676 35.9149 43.3667 34.9094 43.4238 33.8759V15.6599C43.3656 14.6288 43.0659 13.6257 42.549 12.7318C42.032 11.838 41.3122 11.0784 40.4478 10.5144ZM38.4258 31.7807C38.3795 32.5746 38.1481 33.3465 37.7499 34.0346C37.3519 34.7228 36.7982 35.3079 36.1332 35.7432L24.0014 42.7559C23.2927 43.1142 22.5099 43.3009 21.716 43.3009C20.9221 43.3009 20.1392 43.1142 19.4307 42.7559L7.313 35.7432C6.64808 35.3079 6.09437 34.7228 5.6963 34.0346C5.29816 33.3465 5.06671 32.5746 5.02046 31.7807V17.7695C5.06671 16.9756 5.29816 16.2037 5.6963 15.5156C6.09437 14.8274 6.64808 14.2422 7.313 13.807L19.4163 6.79427C20.125 6.436 20.9078 6.24931 21.7018 6.24931C22.4957 6.24931 23.2785 6.436 23.9872 6.79427L36.119 13.807C36.7865 14.2407 37.3431 14.8251 37.7437 15.5134C38.1444 16.2016 38.378 16.9744 38.4258 17.7695V31.7807Z" fill="#414042"/>
<path d="M15.6199 24.775C15.6199 25.915 15.9778 27.0295 16.6484 27.9774C17.319 28.9254 18.2723 29.6641 19.3876 30.1005C20.5028 30.5367 21.73 30.6508 22.9139 30.4285C24.0978 30.206 25.1853 29.6571 26.0388 28.8509C26.8924 28.0448 27.4737 27.0177 27.7092 25.8996C27.9447 24.7814 27.8239 23.6224 27.3619 22.5691C26.8999 21.5158 26.1178 20.6156 25.114 19.9822C24.1104 19.3488 22.9303 19.0107 21.7232 19.0107C20.1045 19.0107 18.5521 19.618 17.4075 20.6991C16.2629 21.7801 15.6199 23.2462 15.6199 24.775Z" fill="#414042"/>
</svg>
