<svg width="49" height="46" viewBox="0 0 49 46" fill="none" xmlns="http://www.w3.org/2000/svg">
<path d="M48.026 36.8755C47.6345 36.2524 47.1227 35.7135 46.5205 35.2904C45.9183 34.8673 45.2378 34.5685 44.5189 34.4114C41.768 33.7716 39.3823 32.069 37.8829 29.6756C36.3836 27.2822 35.8926 24.3926 36.5172 21.6383C36.7573 20.5737 36.6776 19.462 36.2879 18.4426C35.8983 17.4232 35.2161 16.5417 34.3271 15.9088C33.4381 15.2759 32.3819 14.9198 31.2911 14.8851C30.2004 14.8505 29.1237 15.1389 28.1964 15.7142C27.269 16.2895 26.5323 17.126 26.0788 18.1186C25.6253 19.1112 25.4752 20.2157 25.6474 21.2933C25.8195 22.371 26.3062 23.3737 27.0464 24.1756C27.7866 24.9775 28.7472 25.5429 29.8076 25.8006C31.1795 26.11 32.4768 26.6872 33.6252 27.499C34.7736 28.3108 35.7504 29.3413 36.4998 30.5313C37.2491 31.7214 37.7563 33.0476 37.992 34.434C38.2279 35.8204 38.1878 37.2398 37.874 38.6106C37.6882 39.4944 37.7213 40.4102 37.9705 41.2781C38.2197 42.1461 38.6774 42.9399 39.3038 43.5905C39.9301 44.2411 40.706 44.7286 41.5639 45.0106C42.4218 45.2925 43.3356 45.3604 44.2258 45.2083C45.116 45.0562 45.9554 44.6886 46.671 44.1377C47.3865 43.5868 47.9564 42.8693 48.3312 42.0477C48.7059 41.226 48.874 40.3252 48.8208 39.4237C48.7676 38.5222 48.4948 37.6474 48.026 36.8755Z" fill="#414042"/>
<path d="M13.9796 30.729C14.9483 31.2576 16.0528 31.4848 17.1515 31.3813C18.2502 31.2778 19.2928 30.8484 20.1458 30.1482C20.9988 29.448 21.6231 28.5089 21.9385 27.4515C22.2541 26.394 22.2464 25.2663 21.9166 24.2132C21.4985 22.8704 21.3496 21.4583 21.4784 20.0578C21.6071 18.6573 22.011 17.296 22.6669 16.0519C23.3228 14.8078 24.2179 13.7054 25.3007 12.8079C26.3835 11.9104 27.6327 11.2355 28.9769 10.8218C30.0194 10.4952 30.942 9.86762 31.6286 9.01797C32.3152 8.16832 32.7352 7.13455 32.8356 6.04674C32.9361 4.95893 32.7126 3.86569 32.1932 2.90469C31.6738 1.94362 30.8817 1.15765 29.9167 0.645715C28.9517 0.133783 27.8568 -0.0813242 26.7699 0.027586C25.6829 0.136428 24.6524 0.564338 23.808 1.25754C22.9636 1.95067 22.3432 2.8781 22.0247 3.92306C21.7062 4.96801 21.7039 6.08383 22.0181 7.13008C22.8429 9.83113 22.5639 12.749 21.2425 15.2449C19.921 17.7408 17.6646 19.6116 14.9671 20.4477C13.9022 20.7565 12.9545 21.3778 12.2467 22.2314C11.5389 23.0849 11.1036 24.1312 10.9972 25.2348C10.8909 26.3385 11.1183 27.4487 11.65 28.4216C12.1817 29.3946 12.9933 30.1855 13.9796 30.692V30.729Z" fill="#414042"/>
<path d="M28.2294 29.8243C27.4931 29.8501 26.7695 30.0227 26.1007 30.3317C25.4319 30.6407 24.8315 31.08 24.3347 31.624C22.407 33.6858 19.7414 34.9005 16.9208 35.0026C14.1 35.1046 11.3536 34.0856 9.28199 32.1685C8.74673 31.6663 8.117 31.2755 7.42936 31.0188C6.74179 30.7621 6.01 30.6447 5.27659 30.6734C4.37384 30.716 3.49517 30.9789 2.7174 31.4392C1.93957 31.8994 1.28631 32.5431 0.814525 33.3138C0.342671 34.0847 0.0667334 34.9593 0.0106508 35.8613C-0.045364 36.7634 0.120172 37.6654 0.492949 38.4887C0.865725 39.312 1.43428 40.0315 2.14912 40.5846C2.86395 41.1376 3.70322 41.5072 4.59376 41.6612C5.4843 41.8152 6.39906 41.7489 7.25806 41.4681C8.11714 41.1873 8.89436 40.7005 9.52192 40.0502C10.4766 39.0166 11.6258 38.1814 12.9037 37.5927C14.1817 37.0039 15.5632 36.673 16.9692 36.619C18.3752 36.565 19.7781 36.7889 21.0974 37.2779C22.4167 37.7669 23.6266 38.5114 24.6577 39.4688C25.329 40.0754 26.1387 40.5081 27.016 40.7294C27.8933 40.9506 28.8114 40.9536 29.69 40.7379C30.5687 40.5222 31.3811 40.0946 32.0562 39.4923C32.7314 38.8901 33.2487 38.1315 33.5629 37.2831C33.8771 36.4347 33.9786 35.5222 33.8587 34.6254C33.7386 33.7287 33.4007 32.8751 32.8744 32.1391C32.3482 31.4032 31.6497 30.8074 30.8399 30.4038C30.0301 30.0003 29.1338 29.8013 28.2294 29.8243Z" fill="#414042"/>
</svg>
