<svg width="44" height="49" viewBox="0 0 44 49" fill="none" xmlns="http://www.w3.org/2000/svg">
<path d="M40.4479 9.99625L24.6992 0.888213C23.7757 0.424294 22.7565 0.182739 21.7232 0.182739C20.6898 0.182739 19.6708 0.424294 18.7472 0.888213L2.9985 9.99625C2.13406 10.5602 1.41435 11.3198 0.897331 12.2137C0.38038 13.1075 0.0807069 14.1106 0.022522 15.1418V33.3578C0.0796218 34.3912 0.378753 35.3967 0.895703 36.293C1.41265 37.1894 2.13298 37.9514 2.9985 38.5176L18.7472 47.6258C19.6708 48.0897 20.6898 48.3311 21.7232 48.3311C22.7565 48.3311 23.7757 48.0897 24.6992 47.6258L40.4479 38.5176C41.3134 37.9514 42.0337 37.1894 42.5507 36.293C43.0676 35.3967 43.3667 34.3912 43.4238 33.3578V15.1418C43.3657 14.1106 43.066 13.1075 42.549 12.2137C42.032 11.3198 41.3123 10.5602 40.4479 9.99625ZM38.4258 31.2625C38.3796 32.0564 38.1481 32.8283 37.75 33.5164C37.3519 34.2046 36.7982 34.7897 36.1333 35.225L24.0014 42.2377C23.2928 42.596 22.51 42.7827 21.7161 42.7827C20.9222 42.7827 20.1393 42.596 19.4307 42.2377L7.31306 35.225C6.64814 34.7897 6.09443 34.2046 5.69636 33.5164C5.29822 32.8283 5.06677 32.0564 5.02052 31.2625V17.2513C5.06677 16.4574 5.29822 15.6855 5.69636 14.9974C6.09443 14.3092 6.64814 13.724 7.31306 13.2888L19.4164 6.27608C20.1251 5.91782 20.9078 5.73112 21.7018 5.73112C22.4957 5.73112 23.2786 5.91782 23.9872 6.27608L36.1191 13.2888C36.7866 13.7225 37.3431 14.307 37.7438 14.9952C38.1444 15.6834 38.378 16.4562 38.4258 17.2513V31.2625Z" fill="#414042"/>
</svg>
