<svg width="47" height="46" viewBox="0 0 47 46" fill="none" xmlns="http://www.w3.org/2000/svg">
<path opacity="0.95" d="M7.93433 37.3726V45.273L14.77 41.3194V33.4258L7.93433 37.3726Z" fill="#414042"/>
<path opacity="0.5" d="M6.83571 37.3726V45.273L0 41.3194V33.4258L6.83571 37.3726Z" fill="#414042"/>
<path opacity="0.3" d="M7.93433 28.8416V36.1045L14.2275 32.4696L7.93433 28.8416Z" fill="#414042"/>
<path opacity="0.75" d="M6.83567 28.8416L0.54248 32.4696L6.83567 36.1045V28.8416Z" fill="#414042"/>
<path opacity="0.95" d="M6.83571 26.9021V19.0017L0 22.9553V30.8489L6.83571 26.9021Z" fill="#414042"/>
<path opacity="0.95" d="M7.93433 8.53104V16.4314L14.77 12.4778V4.58423L7.93433 8.53104Z" fill="#414042"/>
<path opacity="0.5" d="M6.83571 8.53104V16.4314L0 12.4778V4.58423L6.83571 8.53104Z" fill="#414042"/>
<path opacity="0.3" d="M7.93433 0V7.26294L14.2275 3.62808L7.93433 0Z" fill="#414042"/>
<path opacity="0.75" d="M6.83567 0L0.54248 3.62808L6.83567 7.26294V0Z" fill="#414042"/>
<path opacity="0.75" d="M0.54248 14.0513V21.321L6.83567 17.6861L0.54248 14.0513Z" fill="#414042"/>
<path opacity="0.15" d="M14.2275 14.0513L7.93433 17.6861L14.2275 21.321V14.0513Z" fill="#414042"/>
<path opacity="0.5" d="M7.93433 26.9021V19.0017L14.77 22.9553V30.8489L7.93433 26.9021Z" fill="#414042"/>
<path opacity="0.95" d="M23.8707 37.3726V45.273L30.7064 41.3194V33.4258L23.8707 37.3726Z" fill="#414042"/>
<path opacity="0.5" d="M22.7721 37.3726V45.273L15.9364 41.3194V33.4258L22.7721 37.3726Z" fill="#414042"/>
<path opacity="0.3" d="M23.8707 28.8416V36.1045L30.1639 32.4696L23.8707 28.8416Z" fill="#414042"/>
<path opacity="0.75" d="M22.7721 28.8416L16.4789 32.4696L22.7721 36.1045V28.8416Z" fill="#414042"/>
<path opacity="0.95" d="M22.7721 26.9021V19.0017L15.9364 22.9553V30.8489L22.7721 26.9021Z" fill="#414042"/>
<path opacity="0.95" d="M23.8707 8.53104V16.4314L30.7064 12.4778V4.58423L23.8707 8.53104Z" fill="#414042"/>
<path opacity="0.5" d="M22.7721 8.53104V16.4314L15.9364 12.4778V4.58423L22.7721 8.53104Z" fill="#414042"/>
<path opacity="0.3" d="M23.8707 0V7.26294L30.1639 3.62808L23.8707 0Z" fill="#414042"/>
<path opacity="0.75" d="M22.7721 0L16.4789 3.62808L22.7721 7.26294V0Z" fill="#414042"/>
<path opacity="0.75" d="M16.4789 14.0513V21.321L22.7721 17.6861L16.4789 14.0513Z" fill="#414042"/>
<path opacity="0.15" d="M30.1639 14.0513L23.8707 17.6861L30.1639 21.321V14.0513Z" fill="#414042"/>
<path opacity="0.5" d="M23.8707 26.9021V19.0017L30.7064 22.9553V30.8489L23.8707 26.9021Z" fill="#414042"/>
<path opacity="0.95" d="M39.5765 37.3726V45.273L46.419 41.3194V33.4258L39.5765 37.3726Z" fill="#414042"/>
<path opacity="0.5" d="M38.4847 37.3726V45.273L31.6422 41.3194V33.4258L38.4847 37.3726Z" fill="#414042"/>
<path opacity="0.3" d="M39.5765 28.8416V36.1045L45.8697 32.4696L39.5765 28.8416Z" fill="#414042"/>
<path opacity="0.75" d="M38.4847 28.8416L32.1915 32.4696L38.4847 36.1045V28.8416Z" fill="#414042"/>
<path opacity="0.95" d="M38.4847 26.9021V19.0017L31.6422 22.9553V30.8489L38.4847 26.9021Z" fill="#414042"/>
<path opacity="0.95" d="M39.5765 8.53104V16.4314L46.419 12.4778V4.58423L39.5765 8.53104Z" fill="#414042"/>
<path opacity="0.5" d="M38.4847 8.53104V16.4314L31.6422 12.4778V4.58423L38.4847 8.53104Z" fill="#414042"/>
<path opacity="0.3" d="M39.5765 0V7.26294L45.8697 3.62808L39.5765 0Z" fill="#414042"/>
<path opacity="0.75" d="M38.4847 0L32.1915 3.62808L38.4847 7.26294V0Z" fill="#414042"/>
<path opacity="0.75" d="M32.1915 14.0513V21.321L38.4847 17.6861L32.1915 14.0513Z" fill="#414042"/>
<path opacity="0.15" d="M45.8697 14.0513L39.5765 17.6861L45.8697 21.321V14.0513Z" fill="#414042"/>
<path opacity="0.5" d="M39.5765 26.9021V19.0017L46.419 22.9553V30.8489L39.5765 26.9021Z" fill="#414042"/>
</svg>
