<svg width="31" height="31" viewBox="0 0 31 31" fill="none" xmlns="http://www.w3.org/2000/svg">
<path d="M15.5459 15.2287C14.1654 15.2287 12.8159 14.8193 11.6681 14.0524C10.5203 13.2854 9.62564 12.1953 9.09735 10.9199C8.56906 9.64453 8.43084 8.24112 8.70016 6.88717C8.96948 5.53322 9.63424 4.28953 10.6104 3.31339C11.5865 2.33724 12.8302 1.67248 14.1842 1.40316C15.5381 1.13384 16.9415 1.27207 18.2169 1.80035C19.4923 2.32864 20.5824 3.22326 21.3494 4.37109C22.1163 5.51891 22.5257 6.86839 22.5257 8.24887C22.5223 10.099 21.7859 11.8724 20.4776 13.1806C19.1694 14.4889 17.396 15.2253 15.5459 15.2287ZM15.5459 2.5381C14.4164 2.5381 13.3123 2.87304 12.3731 3.50054C11.434 4.12805 10.702 5.01995 10.2698 6.06345C9.83757 7.10696 9.72448 8.2552 9.94483 9.36298C10.1652 10.4708 10.7091 11.4883 11.5077 12.287C12.3064 13.0857 13.324 13.6295 14.4317 13.8499C15.5395 14.0703 16.6878 13.9572 17.7313 13.5249C18.7748 13.0927 19.6667 12.3607 20.2942 11.4216C20.9217 10.4825 21.2566 9.37835 21.2566 8.24887C21.2533 6.73531 20.6505 5.2847 19.5803 4.21445C18.51 3.1442 17.0594 2.54146 15.5459 2.5381Z" fill="white"/>
<path d="M4.1244 25.3811C3.95611 25.3811 3.79471 25.3143 3.67572 25.1953C3.55672 25.0763 3.48987 24.9149 3.48987 24.7466C3.49323 21.8867 4.63079 19.145 6.65302 17.1227C8.67524 15.1005 11.417 13.963 14.2769 13.9596H16.815C16.9833 13.9596 17.1447 14.0264 17.2637 14.1454C17.3827 14.2644 17.4495 14.4258 17.4495 14.5941C17.4495 14.7624 17.3827 14.9238 17.2637 15.0428C17.1447 15.1618 16.9833 15.2287 16.815 15.2287H14.2769C11.7526 15.2287 9.33163 16.2314 7.54667 18.0164C5.76171 19.8014 4.75893 22.2223 4.75893 24.7466C4.75893 24.9149 4.69207 25.0763 4.57308 25.1953C4.45408 25.3143 4.29269 25.3811 4.1244 25.3811Z" fill="white"/>
<path d="M21.2567 29.1884C21.0884 29.1884 20.927 29.1215 20.808 29.0025C20.689 28.8835 20.6222 28.7221 20.6222 28.5538V18.4014C20.6222 18.2331 20.689 18.0717 20.808 17.9527C20.927 17.8337 21.0884 17.7668 21.2567 17.7668C21.425 17.7668 21.5864 17.8337 21.7054 17.9527C21.8244 18.0717 21.8913 18.2331 21.8913 18.4014V28.5538C21.8913 28.7221 21.8244 28.8835 21.7054 29.0025C21.5864 29.1215 21.425 29.1884 21.2567 29.1884Z" fill="white"/>
<path d="M26.3329 24.1121H16.1804C16.0121 24.1121 15.8507 24.0452 15.7317 23.9262C15.6127 23.8072 15.5459 23.6458 15.5459 23.4775C15.5459 23.3093 15.6127 23.1479 15.7317 23.0289C15.8507 22.9099 16.0121 22.843 16.1804 22.843H26.3329C26.5012 22.843 26.6626 22.9099 26.7816 23.0289C26.9006 23.1479 26.9674 23.3093 26.9674 23.4775C26.9674 23.6458 26.9006 23.8072 26.7816 23.9262C26.6626 24.0452 26.5012 24.1121 26.3329 24.1121Z" fill="white"/>
</svg>
