<svg width="41" height="38" viewBox="0 0 41 38" fill="none" xmlns="http://www.w3.org/2000/svg">
<path d="M11.962 3.68245C11.2848 4.12745 10.7209 4.72619 10.3157 5.43031C9.91049 6.13443 9.67517 6.9244 9.62878 7.73668V12.3537C9.67517 13.166 9.91049 13.956 10.3157 14.6601C10.7209 15.3643 11.2848 15.9629 11.962 16.4079L16.7897 19.2697C18.0701 20.0138 19.1228 19.4033 19.1228 17.9151V2.27062C19.1228 0.782499 18.0701 0.172033 16.7897 0.916095L11.962 3.68245Z" fill="#231F20"/>
<path d="M11.4592 17.4086C10.7583 17.0575 9.98376 16.8745 9.19826 16.8745C8.41276 16.8745 7.63825 17.0575 6.93732 17.4086L3.07854 19.5979C2.42101 20.0235 1.87347 20.596 1.47995 21.2693C1.08649 21.9427 0.858017 22.6981 0.812988 23.4748V28.8387C0.812988 30.2618 1.83529 30.8456 3.07854 30.1341L16.156 22.6539C17.3993 21.9424 17.3993 20.7838 16.156 20.0722L11.4592 17.4086Z" fill="#231F20"/>
<path d="M28.9963 3.68245C29.6735 4.12745 30.2374 4.72619 30.6426 5.43031C31.0479 6.13443 31.2832 6.9244 31.3295 7.73668V12.3537C31.2832 13.166 31.0479 13.956 30.6426 14.6601C30.2374 15.3643 29.6735 15.9629 28.9963 16.4079L24.1592 19.2697C22.8788 20.0138 21.8354 19.4033 21.8354 17.9151V2.27062C21.8354 0.782499 22.8788 0.172033 24.1592 0.916095L28.9963 3.68245Z" fill="#231F20"/>
<path d="M29.059 17.4086C29.7896 17.0575 30.5968 16.8745 31.4154 16.8745C32.2341 16.8745 33.0413 17.0575 33.7719 17.4086L37.7937 19.5979C38.4778 20.024 39.0471 20.5968 39.4555 21.2702C39.864 21.9436 40.1003 22.6988 40.1454 23.4748V28.8387C40.1454 30.2618 39.0895 30.8456 37.7937 30.1341L24.1637 22.6539C22.8678 21.9424 22.8678 20.7838 24.1637 20.0722L29.059 17.4086Z" fill="#231F20"/>
<path d="M9.15806 37.3635C9.85939 37.7142 10.6343 37.8969 11.4202 37.8969C12.2062 37.8969 12.9811 37.7142 13.6824 37.3635L17.5435 35.168C18.2004 34.7406 18.7468 34.1669 19.1389 33.493C19.5309 32.8189 19.7577 32.0635 19.801 31.2872V25.9305C19.801 24.5094 18.7875 23.9264 17.5435 24.6369L4.45851 32.1071C3.21452 32.8177 3.21452 33.9746 4.45851 34.6852L9.15806 37.3635Z" fill="#231F20"/>
<path d="M20.4791 31.2916C20.525 32.066 20.7616 32.8194 21.17 33.4913C21.5785 34.1633 22.1472 34.735 22.8308 35.1608L26.8527 37.3639C27.5832 37.7143 28.3904 37.8969 29.2092 37.8969C30.0278 37.8969 30.835 37.7143 31.5656 37.3639L36.4609 34.6783C37.7567 33.9682 37.7567 32.812 36.4609 32.1019L22.8308 24.6367C21.535 23.9266 20.4791 24.5093 20.4791 25.9294V31.2916Z" fill="#231F20"/>
</svg>
