<svg width="41" height="38" viewBox="0 0 41 38" fill="none" xmlns="http://www.w3.org/2000/svg">
<path d="M11.9621 3.68258C11.2849 4.12758 10.721 4.72631 10.3157 5.43043C9.91055 6.13455 9.67523 6.92452 9.62885 7.7368V12.3538C9.67523 13.1661 9.91055 13.9561 10.3157 14.6602C10.721 15.3644 11.2849 15.963 11.9621 16.408L16.7897 19.2698C18.0701 20.0139 19.1229 19.4034 19.1229 17.9152V2.27074C19.1229 0.782621 18.0701 0.172156 16.7897 0.916217L11.9621 3.68258Z" fill="#231F20"/>
<path d="M11.4591 17.4084C10.7582 17.0574 9.9837 16.8744 9.1982 16.8744C8.4127 16.8744 7.63819 17.0574 6.93726 17.4084L3.07848 19.5978C2.42095 20.0234 1.87341 20.5958 1.47988 21.2692C1.08642 21.9426 0.857956 22.698 0.812927 23.4747V28.8386C0.812927 30.2617 1.83523 30.8455 3.07848 30.134L16.156 22.6537C17.3993 21.9422 17.3993 20.7837 16.156 20.0721L11.4591 17.4084Z" fill="#231F20"/>
<path d="M28.9963 3.68258C29.6735 4.12758 30.2374 4.72631 30.6426 5.43043C31.0479 6.13455 31.2832 6.92452 31.3295 7.7368V12.3538C31.2832 13.1661 31.0479 13.9561 30.6426 14.6602C30.2374 15.3644 29.6735 15.963 28.9963 16.408L24.1592 19.2698C22.8788 20.0139 21.8354 19.4034 21.8354 17.9152V2.27074C21.8354 0.782621 22.8788 0.172156 24.1592 0.916217L28.9963 3.68258Z" fill="#231F20"/>
<path d="M29.0589 17.4084C29.7895 17.0574 30.5967 16.8744 31.4154 16.8744C32.234 16.8744 33.0413 17.0574 33.7718 17.4084L37.7937 19.5978C38.4778 20.0238 39.047 20.5967 39.4555 21.2701C39.8639 21.9435 40.1002 22.6986 40.1453 23.4747V28.8386C40.1453 30.2617 39.0895 30.8455 37.7937 30.134L24.1636 22.6537C22.8677 21.9422 22.8677 20.7837 24.1636 20.0721L29.0589 17.4084Z" fill="#231F20"/>
<path d="M9.15806 37.3637C9.85939 37.7143 10.6343 37.897 11.4202 37.897C12.2062 37.897 12.9811 37.7143 13.6824 37.3637L17.5435 35.1682C18.2004 34.7407 18.7468 34.167 19.1389 33.4931C19.5309 32.8191 19.7577 32.0636 19.801 31.2873V25.9307C19.801 24.5095 18.7875 23.9265 17.5435 24.637L4.45851 32.1072C3.21452 32.8178 3.21452 33.9748 4.45851 34.6853L9.15806 37.3637Z" fill="#231F20"/>
<path d="M20.4791 31.2917C20.525 32.0661 20.7616 32.8195 21.17 33.4914C21.5785 34.1634 22.1472 34.7352 22.8308 35.1609L26.8527 37.364C27.5832 37.7145 28.3904 37.897 29.2092 37.897C30.0278 37.897 30.835 37.7145 31.5656 37.364L36.4609 34.6784C37.7567 33.9683 37.7567 32.8121 36.4609 32.102L22.8308 24.6368C21.535 23.9267 20.4791 24.5094 20.4791 25.9296V31.2917Z" fill="#231F20"/>
</svg>
