<svg width="55" height="55" viewBox="0 0 55 55" fill="none" xmlns="http://www.w3.org/2000/svg">
<path d="M8.44488 10.3145L0 18.7593L8.44488 27.2042L16.8898 18.7593L8.44488 10.3145Z" fill="#414042"/>
<path d="M16.9038 18.7554L8.4557 10.3074C10.6945 12.5469 11.9522 15.584 11.9522 18.7507C11.9522 21.9174 10.6945 24.9545 8.4557 27.1941L0.00756836 35.6327L8.4557 44.0808L16.9038 35.6327L25.3518 27.1941L16.9038 18.7554Z" fill="url(#paint0_linear_3123_318)"/>
<path d="M45.9467 44.0992L54.3914 35.6544L45.9467 27.2095L37.5018 35.6544L45.9467 44.0992Z" fill="#414042"/>
<path d="M37.5031 35.6516L45.9513 44.0903C43.7125 41.8507 42.4548 38.8136 42.4548 35.6469C42.4548 32.4802 43.7125 29.4431 45.9513 27.2036L54.3995 18.7554L45.9513 10.3074L37.5031 18.7554L29.0646 27.2036L37.5031 35.6516Z" fill="url(#paint1_linear_3123_318)"/>
<path d="M10.3137 45.9559L18.7586 54.4008L27.2035 45.9559L18.7586 37.511L10.3137 45.9559Z" fill="#414042"/>
<path d="M18.7601 37.4985L10.312 45.9465C12.5516 43.7078 15.5886 42.4501 18.7553 42.4501C21.922 42.4501 24.9591 43.7078 27.1987 45.9465L35.6374 54.3948L44.0854 45.9465L35.6374 37.4985L27.1987 29.0598L18.7601 37.4985Z" fill="url(#paint2_linear_3123_318)"/>
<path d="M44.0989 8.44495L35.654 0L27.2091 8.44488L35.654 16.8898L44.0989 8.44495Z" fill="#414042"/>
<path d="M35.6562 16.8991L44.0949 8.45107C41.8553 10.6898 38.8182 11.9475 35.6515 11.9475C32.4848 11.9475 29.4478 10.6898 27.2081 8.45107L18.7601 0.00292969L10.312 8.45107L18.7601 16.8991L27.2081 25.3473L35.6562 16.8991Z" fill="url(#paint3_linear_3123_318)"/>
<defs>
<linearGradient id="paint0_linear_3123_318" x1="12.5945" y1="42.6981" x2="12.8028" y2="13.4801" gradientUnits="userSpaceOnUse">
<stop stop-color="#414042"/>
<stop offset="1" stop-color="#E6E7E8"/>
</linearGradient>
<linearGradient id="paint1_linear_3123_318" x1="99555.2" y1="12771.1" x2="99545" y2="13813.3" gradientUnits="userSpaceOnUse">
<stop stop-color="#414042"/>
<stop offset="1" stop-color="#E6E7E8"/>
</linearGradient>
<linearGradient id="paint2_linear_3123_318" x1="64149.8" y1="76826.4" x2="63368.2" y2="76822.4" gradientUnits="userSpaceOnUse">
<stop stop-color="#414042"/>
<stop offset="1" stop-color="#E6E7E8"/>
</linearGradient>
<linearGradient id="paint3_linear_3123_318" x1="52312.6" y1="-39770.5" x2="53094.5" y2="-39766.3" gradientUnits="userSpaceOnUse">
<stop stop-color="#414042"/>
<stop offset="1" stop-color="#E6E7E8"/>
</linearGradient>
</defs>
</svg>
